PathFileType	4	(X/Y/Z)	C:\Users\WrightLab\Desktop\Jo\P5V16.trc
DataRate	CameraRate	NumFrames	NumMarkers	Units	OrigDataRate	OrigDataStartFrame	OrigNumFrames
100.00	100.00	       21	19	mm	100.00	288	       767
Frame#	Time	Headset_Front			Headset_Back			Headset_Left			Headset_Right			Left_Shoulder			Right_Shoulder			Sternum			C7			Left Elbow			Right Elbow			Left Wrist			Right Wrist			Left ASIS			Right ASIS			S2			Left Knee			Right Knee			Left Ankle			Right Ankle			
		X1	Y1	Z1	X2	Y2	Z2	X3	Y3	Z3	X4	Y4	Z4	X5	Y5	Z5	X6	Y6	Z6	X7	Y7	Z7	X8	Y8	Z8	X9	Y9	Z9	X10	Y10	Z10	X11	Y11	Z11	X12	Y12	Z12	X13	Y13	Z13	X14	Y14	Z14	X15	Y15	Z15	X16	Y16	Z16	X17	Y17	Z17	X18	Y18	Z18	X19	Y19	Z19	

288	2.870	-420.95383	1615.92249	-464.61993	-542.36139	1731.36804	-526.73352							-349.37393	1449.36267	-549.42920	-764.08038	1435.02515	-560.33002	-587.13727	1289.06482	-462.29068	-561.43781	1485.79810	-671.81757	-274.04132	1167.39343	-614.18329	-868.19714	1172.92896	-624.65729	-275.10818	1036.07166	-426.12796	-829.08228	1056.52844	-416.19391	-474.93674	889.16968	-437.15158	-737.33887	921.99475	-532.46045	-520.86792	933.49048	-747.25659	-536.72015	477.42621	-406.59546	-708.79285	463.52441	-696.78906	-626.81726	74.29553	-417.17203				
289	2.880	-421.39011	1616.34314	-455.77872	-542.77765	1732.36230	-518.45868							-350.59393	1450.01074	-543.24023	-765.28473	1436.11646	-551.92017	-589.13885	1290.84546	-454.84390	-562.69171	1485.97839	-663.21252	-276.40524	1166.80762	-606.54181	-870.09503	1173.89697	-616.42963	-276.17212	1036.04468	-419.20328	-832.15436	1057.32446	-407.96323	-478.73987	889.36084	-427.53925	-740.60419	923.55341	-520.89111	-524.59528	933.08948	-737.43445	-540.50122	478.61655	-397.28339	-712.48596	463.56790	-686.98816	-626.40277	74.40355	-415.92978				
290	2.890	-421.87021	1617.25574	-449.48401							-625.18640	1588.47498	-341.94766	-351.59900	1449.90833	-535.00116	-767.25684	1437.85278	-543.25525	-591.35126	1292.37061	-446.21530	-563.91656	1487.17395	-655.15283	-278.87631	1166.75195	-598.97754	-872.00055	1175.53137	-608.11536	-277.80771	1035.51550	-411.42905	-835.31830	1058.13562	-400.82898	-481.26367	890.92297	-417.48331	-742.44543	924.61426	-509.16925	-528.35974	932.76697	-727.31592	-542.30316	480.52841	-389.00677	-715.96991	463.55704	-677.39917	-627.28473	73.88277	-415.08923				
291	2.900	-422.26797	1617.80847	-440.60886							-625.70715	1589.72644	-333.17053	-353.22269	1450.79956	-526.93402	-769.53986	1439.24463	-534.96460	-591.42627	1294.09290	-436.65103	-565.31000	1488.07422	-646.67169	-282.25723	1167.69360	-591.24060	-873.75897	1177.65247	-600.29779	-278.34518	1036.32288	-404.99417	-837.55914	1058.36938	-393.42627	-483.00610	892.87134	-408.85046	-745.36902	926.97125	-497.82471	-532.45605	933.67273	-717.07080	-544.76282	483.45612	-380.53683	-719.96857	464.31604	-666.32312	-625.93848	74.49299	-413.38171				
292	2.910	-422.62900	1618.55200	-432.51260							-624.82233	1591.01648	-324.88959	-354.62170	1451.76672	-519.28833	-769.78253	1440.73743	-524.71759	-592.89948	1295.87378	-427.32004	-566.78094	1489.30273	-638.40302	-285.30603	1168.37488	-583.64685	-875.31763	1179.70142	-591.80634	-280.65549	1036.97229	-397.71246	-840.30975	1059.63708	-384.83099	-484.01212	895.25385	-399.59497	-746.58838	928.80499	-484.88562	-536.13623	934.38782	-706.96008	-547.01599	485.52234	-371.25439	-725.57965	466.65237	-655.10577	-625.93848	74.49299	-413.38171				
293	2.920	-423.16272	1620.04736	-425.74292							-626.45752	1592.24707	-317.65927	-355.84637	1453.60999	-512.60358	-772.70807	1443.60510	-516.85559	-593.36621	1297.71680	-418.53833	-568.38025	1490.55615	-630.59833	-287.83350	1169.20886	-577.04547	-876.50659	1181.69995	-583.77319	-281.28104	1037.47021	-390.19934	-842.11292	1060.67395	-377.14322	-487.46494	897.00873	-391.37405	-748.33972	931.58289	-472.69595	-540.28687	935.47058	-696.55750	-548.35858	487.43671	-362.12384	-728.65619	468.07474	-643.87061	-626.12097	75.19912	-412.63611				
294	2.930	-423.58136	1620.94788	-418.24075							-626.09003	1593.11938	-309.13657	-357.12622	1454.83081	-505.68820	-773.17682	1445.58215	-506.79877	-594.01514	1299.72083	-409.90695	-570.21649	1491.44360	-622.19928	-289.49896	1170.24231	-571.63495	-878.51984	1184.09509	-575.87256	-284.10828	1038.07336	-383.84500	-843.88318	1061.69910	-369.66248	-490.06662	899.18628	-382.61743	-748.93292	933.39258	-461.10275	-544.04553	936.32574	-686.60156	-549.05707	489.18225	-354.30042	-732.35614	470.08371	-630.42181	-627.41333	75.48070	-411.44424				
295	2.940	-424.25067	1622.38574	-412.11801							-627.00787	1594.15356	-302.00574	-358.33841	1456.04065	-499.79416	-773.63898	1447.33984	-497.92526	-595.44855	1301.75696	-401.29535	-571.95734	1492.55713	-614.41510	-292.86652	1171.01196	-563.82568	-880.09204	1185.74280	-567.94830	-285.47354	1039.44751	-377.20071	-845.37775	1062.36316	-361.55020	-491.26514	901.30347	-373.87515	-750.79944	935.62585	-449.50851	-548.43726	937.67767	-676.61780	-550.27875	489.35861	-346.55844	-740.95636	475.41226	-618.33441	-628.12042	75.48279	-411.41513				
296	2.950	-424.70068	1623.24500	-404.43558							-626.20685	1595.41309	-294.05664	-359.58621	1457.18518	-492.35541	-775.04279	1447.98108	-488.93973	-595.11212	1302.77832	-392.25748	-573.84247	1493.43237	-606.72327	-294.97064	1171.78918	-556.48413	-882.02338	1187.51660	-560.10272	-285.89920	1040.29724	-369.80002	-847.87958	1063.88989	-353.75580	-492.47476	902.95496	-365.14914	-752.76544	937.85809	-438.54977	-552.04907	937.96240	-666.56305	-550.94586	489.91763	-338.53378	-748.00952	478.48679	-605.01691	-628.50122	75.40007	-411.44379				
297	2.960	-425.10019	1623.31897	-396.62411							-627.21716	1597.11609	-285.90363	-361.08960	1457.98315	-484.44946	-776.70465	1450.05298	-480.50479	-596.86273	1304.49512	-383.30023	-575.46686	1494.46057	-598.67871	-296.88086	1172.42419	-551.25348	-883.70514	1188.81848	-552.26984	-287.63254	1041.71252	-364.24667	-850.12567	1064.73315	-347.76123	-494.92825	904.35730	-358.18271	-755.23523	940.08417	-428.63599	-556.36139	939.21155	-656.26733	-550.77832	490.05328	-331.37466	-755.60864	480.51993	-590.01074	-629.60944	75.01783	-411.41116				
298	2.970	-425.70105	1624.65710	-391.11435							-625.66034	1598.21777	-277.27606	-361.39478	1459.15845	-479.02072	-777.69183	1451.31116	-471.23645	-596.39081	1305.84351	-374.61438	-577.18909	1495.37390	-591.50635	-298.88208	1173.62256	-545.33643	-885.65027	1190.76392	-544.88519	-289.08920	1042.45630	-356.50308	-851.56976	1066.41809	-339.91925	-495.19385	905.84631	-349.66385	-756.33759	941.70148	-417.95593	-559.92194	939.55121	-646.68713	-550.83868	488.94962	-325.62701	-764.37628	484.18063	-575.88568	-629.07898	75.20037	-411.07181				
299	2.980	-426.30475	1625.72839	-384.91891							-625.73059	1599.75562	-270.32202	-363.03775	1459.79907	-472.76440	-779.53815	1452.62085	-463.30826	-598.08020	1307.76733	-367.24115	-578.83990	1496.01697	-583.50690	-301.25983	1174.56262	-540.27271	-887.84564	1192.50879	-537.07233	-290.30856	1044.27148	-350.99960	-853.54871	1066.82178	-332.62289	-496.37128	907.18951	-341.30518	-758.46057	943.43298	-409.33243	-563.54553	940.18085	-636.52087	-550.62457	488.63779	-318.84503	-771.78455	486.21515	-559.53448	-629.05341	75.57069	-410.75040				
300	2.990	-426.76398	1626.94116	-376.27032							-626.63043	1601.70532	-262.22855	-363.93582	1460.23279	-466.21539	-779.61176	1454.01563	-454.79700	-598.12909	1308.67725	-359.40033	-580.46405	1497.30334	-576.10956	-302.57202	1174.42346	-531.34808	-889.51392	1194.27490	-529.44934	-291.98517	1045.29138	-344.70117	-854.89093	1068.44165	-325.31244	-496.79044	908.41034	-332.84354	-759.43164	944.85321	-399.39322	-566.74500	941.51581	-626.53601	-549.03821	488.88794	-312.62274	-780.93610	486.86826	-541.16772	-629.08691	75.89027	-410.42114				
301	3.000	-427.36548	1628.41309	-370.71515							-625.49335	1603.30249	-253.97163	-365.01566	1460.77869	-460.55319	-781.23224	1456.05469	-446.35269	-599.46350	1311.10156	-351.11880	-582.17053	1498.12878	-568.59180	-303.83289	1175.39697	-526.39093	-891.30420	1196.31628	-521.66028	-293.10556	1046.77527	-338.73505	-856.77747	1069.76624	-318.20132	-497.64771	909.85712	-326.39523	-762.29358	946.31256	-390.31693	-568.52203	941.70721	-617.00671	-547.43994	487.96570	-307.54938	-788.02753	486.20520	-518.95679	-628.44751	76.56981	-410.06744				
302	3.010	-427.83685	1629.53442	-363.81049							-627.57959	1605.34277	-247.85370	-366.28159	1461.73169	-453.40866	-782.02881	1456.93176	-437.15256	-600.83905	1312.02515	-344.70200	-583.99670	1499.16577	-561.11316	-306.07275	1176.40125	-520.63489	-893.13293	1197.47327	-512.91791	-295.25439	1047.88403	-332.85730	-857.90491	1070.24158	-310.26151	-497.16684	911.25952	-317.97214	-763.94073	948.24750	-381.05988	-570.33661	942.54620	-607.49023	-545.38928	486.99988	-303.74823	-798.81140	485.64679	-496.94641	-629.52930	76.62340	-409.65561				
303	3.020	-428.31665	1630.85205	-356.57388							-626.59082	1606.68970	-239.49709	-367.25223	1463.36938	-448.16095	-783.69452	1459.00159	-429.18655	-601.72363	1312.68970	-338.55972	-585.70630	1500.42749	-553.94385	-307.86649	1177.56555	-514.50940	-895.09985	1199.32031	-504.66367	-296.66177	1049.00879	-327.25372	-859.39868	1071.27710	-302.60355	-498.26071	912.85864	-310.64471	-764.70117	949.75873	-372.04773	-571.82806	943.32263	-598.74908	-542.44415	487.47092	-299.34625	-805.09180	483.97580	-472.05328	-629.67700	76.96930	-409.53680				
304	3.030	-428.81335	1632.21179	-349.25443							-627.68109	1608.52930	-232.05817	-368.53146	1464.16382	-441.26019	-785.44501	1460.81519	-420.49536	-602.27771	1313.91809	-332.25595	-587.70142	1501.62720	-546.31439	-310.01080	1178.39270	-509.36404	-896.45947	1201.23987	-496.82632	-298.12576	1049.45886	-321.03845	-860.44635	1072.54553	-295.24652	-498.45215	913.56567	-304.02521	-766.51508	950.51575	-361.64301	-573.48944	945.37067	-590.27338	-539.70544	486.42917	-295.93494	-812.18512	481.25616	-445.65759	-629.66681	77.53013	-409.15634	-718.50977	229.41301	-742.46301	
305	3.040	-429.30542	1634.02148	-343.78113							-626.93713	1609.59680	-224.61754	-369.63077	1465.36108	-435.93311	-786.67212	1461.56885	-411.46432	-603.22339	1315.03625	-324.08398	-589.37762	1503.03589	-539.44165	-311.02512	1179.50256	-502.99146	-898.24469	1202.95532	-489.02487	-300.22650	1050.32458	-315.38049	-860.92236	1073.78638	-287.79898	-496.99332	915.19373	-295.91003	-767.78394	952.51758	-352.07718	-575.21057	946.71558	-583.47333	-536.11426	485.79016	-292.97549	-818.26514	482.08997	-420.78363	-629.68567	77.63142	-408.64468	-730.73773	232.92998	-724.21204	
306	3.050	-429.79660	1635.11304	-335.84918							-628.09491	1611.50928	-217.30383	-370.91498	1466.99500	-430.27118	-786.93256	1463.58691	-403.24011	-602.57373	1316.76318	-316.10547	-590.93164	1503.85364	-531.31165	-312.37793	1180.75854	-499.13257	-900.00928	1204.92859	-480.57574	-301.92261	1051.70166	-310.40094	-862.33270	1074.33020	-280.29434	-496.02328	916.14331	-290.13000	-767.95068	953.25989	-341.89020	-576.99957	947.82629	-576.38428	-531.48065	486.51901	-289.15390	-823.02783	483.52319	-394.70023	-629.94861	77.88535	-408.41962	-741.11145	236.12561	-702.05072	
307	3.060	-430.23578	1636.25818	-329.61084							-627.47864	1612.75610	-209.68224	-371.44275	1468.32397	-424.78268	-787.55463	1465.31201	-393.70544	-603.18665	1317.88818	-306.85706	-593.00916	1504.95923	-524.00684	-315.30182	1181.72705	-492.62781	-901.74457	1206.72876	-472.52890	-303.09665	1053.06384	-304.28290	-863.55634	1076.11072	-273.00882	-495.61929	917.53961	-283.00800	-768.62866	954.73114	-331.04086	-579.23120	948.85162	-569.14044	-526.97687	484.98694	-286.86096	-827.70050	485.73529	-368.39859	-629.93536	78.46759	-408.31824	-751.10577	240.35550	-683.87018	
308	3.070	-430.74991	1637.70215	-323.02017							-626.16382	1614.13501	-202.07407	-372.71313	1468.95422	-418.89240	-788.71692	1465.96033	-384.64569	-602.48322	1319.17993	-299.78262	-594.67578	1506.39160	-516.87482	-316.86978	1182.72864	-488.23734	-903.14368	1207.94556	-464.01089	-304.51208	1054.17859	-299.48813	-864.41943	1076.35059	-264.72693	-493.64520	918.52209	-276.34381	-770.20300	955.79358	-320.07693	-581.53394	949.83069	-561.98077	-521.41699	484.41092	-284.04648	-833.75891	491.68552	-343.28516	-629.89539	78.56525	-408.26019	-761.07568	242.45580	-662.53845	
